<svg width="16" height="16" viewBox="0 0 1024 1024" xmlns="http://www.w3.org/2000/svg">
  <path d="M96.48 738.784c-9.248 15.104-19.648 32.64-28.512 46.592a28.544 28.544 0 0 0 9.6 38.784l185.344 114.048a28.48 28.48 0 0 0 39.232-9.28l0.256-0.416c7.392-12.384 16.96-28.512 27.36-45.76 73.408-121.184 147.2-106.336 280.416-42.752l183.776 87.392A28.544 28.544 0 0 0 832 913.888l0.352-0.768 88.16-199.52a28.512 28.512 0 0 0-14.24-37.344 22255.712 22255.712 0 0 1-185.344-88.128c-249.76-121.376-462.048-113.536-624.448 150.656z" fill="#2684FF" />
  <path d="M927.52 285.824c9.248-15.104 19.648-32.64 28.512-46.592a28.544 28.544 0 0 0-9.6-38.784L761.12 86.4a28.48 28.48 0 0 0-39.552 7.712 18.688 18.688 0 0 0-1.056 1.696c-7.424 12.384-16.96 28.512-27.392 45.76-73.408 121.184-147.2 106.336-280.416 42.752L229.504 97.376a28.48 28.48 0 0 0-37.984 13.472l-0.352 0.768-88.256 199.616a28.512 28.512 0 0 0 14.24 37.344c38.784 18.24 115.904 54.592 185.344 88.096 250.336 121.184 462.624 113.056 625.024-150.848z" fill="#2684FF" />
</svg>